<?xml version="1.0" encoding="UTF-8" standalone="no"?>
<svg
   xmlns:dc="http://purl.org/dc/elements/1.1/"
   xmlns:cc="http://creativecommons.org/ns#"
   xmlns:rdf="http://www.w3.org/1999/02/22-rdf-syntax-ns#"
   xmlns:svg="http://www.w3.org/2000/svg"
   xmlns="http://www.w3.org/2000/svg"
   xmlns:sodipodi="http://sodipodi.sourceforge.net/DTD/sodipodi-0.dtd"
   xmlns:inkscape="http://www.inkscape.org/namespaces/inkscape"
   width="200"
   height="250"
   id="svg2"
   version="1.1"
   inkscape:version="0.91 r13725"
   sodipodi:docname="Turkey politic personality icon.svg">
  <metadata
     id="metadata65">
    <rdf:RDF>
      <cc:Work
         rdf:about="">
        <dc:format>image/svg+xml</dc:format>
        <dc:type
           rdf:resource="http://purl.org/dc/dcmitype/StillImage" />
        <dc:title></dc:title>
      </cc:Work>
    </rdf:RDF>
  </metadata>
  <sodipodi:namedview
     pagecolor="#ffffff"
     bordercolor="#666666"
     borderopacity="1"
     objecttolerance="10"
     gridtolerance="10"
     guidetolerance="10"
     inkscape:pageopacity="0"
     inkscape:pageshadow="2"
     inkscape:window-width="1366"
     inkscape:window-height="705"
     id="namedview63"
     showgrid="false"
     inkscape:zoom="1.3350176"
     inkscape:cx="127.60178"
     inkscape:cy="112.70888"
     inkscape:window-x="-8"
     inkscape:window-y="-8"
     inkscape:window-maximized="1"
     inkscape:current-layer="svg2" />
  <defs
     id="defs4">
    <filter
       id="e">
      <feGaussianBlur
         stdDeviation="1"
         id="feGaussianBlur7" />
    </filter>
    <filter
       id="f">
      <feGaussianBlur
         stdDeviation="2"
         id="feGaussianBlur10" />
    </filter>
    <linearGradient
       id="k"
       x1="7"
       y1="167"
       x2="201"
       y2="167"
       gradientUnits="userSpaceOnUse">
      <stop
         offset="0"
         stop-color="#999"
         id="stop13" />
      <stop
         offset="1"
         stop-color="#FFF"
         id="stop15" />
    </linearGradient>
    <linearGradient
       id="p"
       x1="64"
       y1="138"
       x2="138"
       y2="123"
       gradientUnits="userSpaceOnUse">
      <stop
         offset="0"
         stop-color="#EEE"
         id="stop18" />
      <stop
         offset=".2"
         stop-color="#BBB"
         id="stop20" />
      <stop
         offset=".8"
         stop-color="#FFF"
         id="stop22" />
      <stop
         offset="1"
         stop-color="#CCC"
         id="stop24" />
    </linearGradient>
    <linearGradient
       id="q"
       x1="39"
       y1="29"
       x2="148"
       y2="101"
       gradientUnits="userSpaceOnUse">
      <stop
         offset="0"
         stop-color="#777"
         id="stop27" />
      <stop
         offset=".6"
         stop-color="#CCC"
         id="stop29" />
      <stop
         offset="1"
         stop-color="#FFF"
         id="stop31" />
    </linearGradient>
  </defs>
  <g
     fill="none"
     stroke="#BBB"
     stroke-width="2"
     id="g33">
    <circle
       filter="url(#e)"
       cx="99"
       cy="70"
       r="61"
       id="circle35" />
    <g
       stroke-width="3"
       id="g37">
      <path
         filter="url(#f)"
         d="m56,113c-29,16-55,59-40,90 18,35 153,33 169,1 15-29 4-64-37-91z"
         id="path39" />
      <path
         fill="url(#k)"
         stroke="#999"
         d="m53,110c-29,16-55,59-40,90 18,35 153,33 169,1 15-29 4-64-38-91z"
         id="path41" />
    </g>
    <g
       stroke-width="1"
       id="g43">
      <path
         fill="#c5c5c5"
         stroke="#CCC"
         d="m61,110 1,1c-2,2-6,2-7,8-15,18-29,43-39,84 12-47 27-74 44-94z"
         id="path45" />
      <path
         fill="#b6b6b6"
         d="m137,113-1,2c17,17 34,40 46,82-11-42-26-66-44-84z"
         id="path47" />
    </g>
    <path
       fill="url(#p)"
       stroke="#DDD"
       d="m79,125c-4,4-9,6-8,17-11-5-18-14-14-29 7,5 14,9 23,12zm36,0c4,4 9,6 9,17 11-5 18-14 15-29-7,5-14,9-23,12z"
       id="path49" />
    <circle
       fill="url(#q)"
       stroke="#999"
       cx="98"
       cy="68"
       r="60.5"
       id="circle51" />
  </g>
  <path
     d="M33,110 c33.2,53 77.8,92 137.6,118.3l-21.6,19c-62-11-111-51-134-119.3z"
     id="path53"
     fill="#e70013"
     style="fill:#e30a17;fill-opacity:1" />
  <g
     id="g3397"
     transform="matrix(0.21708824,0.16574167,-0.17342629,0.22715353,67.840452,133.1576)"
     style="fill:#ffffff">
    <path
       id="path3399"
       d="m 109.54,150.79 c -5.819,7.559 -15.107,12.469 -25.562,12.469 -17.609,0 -31.906,-13.893 -31.906,-31 0,-17.108 14.297,-31 31.906,-31 10.311,0 19.479,4.777 25.312,12.156 -6.752,-12.528 -19.998,-21.031 -35.219,-21.031 -22.067,0 -39.969,17.902 -39.969,39.969 0,22.066 17.901,39.969 39.969,39.969 15.421,0 28.802,-8.733 35.469,-21.532 z"
       inkscape:connector-curvature="0"
       style="fill:#ffffff" />
    <path
       id="path3401"
       r1="19.542765"
       sides="5"
       type="star"
       flatsided="false"
       cx="86.414192"
       cy="96.388222"
       randomized="0"
       arg2="-1.6171913"
       arg1="-2.2417848"
       r2="7.3094149"
       d="m 138.05,121.64 -7.961,10.645 7.876,10.758 -12.583,-4.283 -7.797,10.816 0.185,-13.291 -12.695,-4.074 12.697,-3.932 -0.049,-13.334 7.663,10.862 12.664,-4.167 z"
       rounded="0"
       inkscape:connector-curvature="0"
       style="fill:#ffffff" />
  </g>
</svg>
